<svg xmlns="http://www.w3.org/2000/svg" viewBox="0 0 47 49" width="47" height="49">
	<style>
		tspan { white-space:pre }
		.shp0 { fill: #ffc100 } 
		.shp1 { fill: #282b3b } 
	</style>
	<path id="JS" class="shp0" d="M14.9 2.63L7.41 2.63L7.41 28.4C7.41 30.13 6.33 30.99 4.16 30.99L1.84 30.99L1 35.98C1.63 36.27 2.57 36.51 3.84 36.69C5.1 36.87 6.23 36.96 7.21 36.96C9.64 36.96 11.53 36.29 12.88 34.95C14.23 33.62 14.9 31.72 14.9 29.28L14.9 2.63ZM32.69 1.99C29.6 1.99 27.18 2.25 25.42 2.75C23.66 3.26 22.37 4.18 21.55 5.51C20.73 6.85 20.32 8.79 20.32 11.33C20.32 13.88 20.86 15.93 21.95 17.49C23.03 19.06 24.84 20.3 27.37 21.21L34.22 23.61C35.43 24 36.27 24.43 36.73 24.9C37.19 25.38 37.42 26.18 37.42 27.32C37.42 28.24 37.27 28.93 36.98 29.4C36.68 29.88 36.19 30.19 35.5 30.36C34.81 30.52 33.77 30.6 32.39 30.6L26.38 30.5L21.16 30.36L20.71 35.73C24.66 36.58 28.55 37.01 32.39 37.01C35.58 37.01 38.08 36.72 39.88 36.15C41.69 35.58 42.99 34.6 43.8 33.22C44.6 31.83 45.01 29.85 45.01 27.27C45.01 24.73 44.47 22.67 43.38 21.09C42.3 19.51 40.44 18.26 37.81 17.35L31.36 15.15C29.98 14.69 29.04 14.22 28.55 13.73C28.06 13.24 27.81 12.44 27.81 11.33C27.81 10.39 27.97 9.69 28.28 9.25C28.59 8.81 29.07 8.54 29.71 8.42C30.35 8.31 31.36 8.25 32.74 8.25C36.98 8.25 40.52 8.3 43.38 8.4L43.87 3.31C40.79 2.43 37.06 1.99 32.69 1.99L32.69 1.99Z" />
	<path id="вечорниці" class="shp1" d="M4.27 43.06L4.27 43.03C4.6 43 4.84 42.89 4.99 42.69C5.13 42.49 5.21 42.19 5.21 41.8C5.21 41.44 5.15 41.15 5.03 40.95C4.91 40.75 4.71 40.6 4.44 40.52C4.17 40.44 3.79 40.4 3.31 40.4C2.82 40.4 2.43 40.41 2.14 40.41C1.85 40.42 1.56 40.44 1.27 40.47L1.27 45.83C1.6 45.86 1.92 45.88 2.24 45.88C2.56 45.89 3 45.89 3.56 45.89C4 45.89 4.35 45.85 4.61 45.77C4.87 45.69 5.07 45.55 5.19 45.35C5.32 45.15 5.38 44.86 5.38 44.49C5.38 44.05 5.29 43.71 5.13 43.47C4.96 43.24 4.67 43.1 4.27 43.06L4.27 43.06ZM4.07 41.97C4.07 42.24 4.01 42.43 3.91 42.52C3.8 42.61 3.6 42.66 3.31 42.66L2.44 42.66L2.44 41.3L3.24 41.3C3.46 41.3 3.63 41.32 3.74 41.35C3.86 41.39 3.94 41.45 3.99 41.55C4.04 41.65 4.07 41.79 4.07 41.97L4.07 41.97ZM3.35 45L2.44 45L2.44 43.44L3.32 43.44C3.55 43.45 3.73 43.48 3.85 43.52C3.97 43.57 4.06 43.65 4.11 43.76C4.16 43.88 4.19 44.05 4.19 44.27C4.19 44.47 4.17 44.62 4.12 44.73C4.07 44.83 3.98 44.9 3.87 44.94C3.75 44.98 3.58 45 3.35 45L3.35 45ZM7.78 44.91C7.65 44.91 7.56 44.88 7.5 44.81C7.44 44.75 7.41 44.65 7.41 44.5L7.41 43.47L9.56 43.47L9.56 42.61L7.41 42.61L7.41 41.8C7.41 41.66 7.44 41.55 7.5 41.49C7.56 41.43 7.65 41.4 7.78 41.4L9.86 41.4L9.91 40.52C9.59 40.48 9.23 40.46 8.84 40.45C8.46 40.45 7.98 40.44 7.41 40.44C7.05 40.44 6.77 40.54 6.55 40.73C6.33 40.93 6.22 41.19 6.22 41.52L6.22 44.77C6.22 45.11 6.33 45.37 6.54 45.56C6.76 45.76 7.05 45.86 7.41 45.86C7.98 45.86 8.46 45.85 8.84 45.84C9.23 45.84 9.59 45.81 9.91 45.78L9.86 44.91L7.78 44.91ZM13.62 40.47L13.62 42.77C13.38 42.86 13.16 42.92 12.98 42.96C12.79 42.99 12.6 43.01 12.4 43.01C12.17 43.01 12.02 42.97 11.93 42.88C11.84 42.8 11.79 42.65 11.79 42.46L11.79 40.47L10.6 40.47L10.6 42.71C10.6 43.16 10.72 43.49 10.94 43.7C11.16 43.91 11.5 44.01 11.97 44.01C12.2 44.01 12.46 43.98 12.76 43.91C13.05 43.84 13.34 43.74 13.62 43.61L13.62 45.83L14.81 45.83L14.81 40.47L13.62 40.47ZM18.04 40.36C17.46 40.36 17 40.45 16.67 40.61C16.35 40.78 16.11 41.06 15.96 41.46C15.81 41.86 15.74 42.42 15.74 43.15C15.74 43.88 15.81 44.44 15.96 44.84C16.11 45.24 16.35 45.52 16.67 45.68C17 45.85 17.46 45.93 18.04 45.93C18.63 45.93 19.09 45.85 19.42 45.68C19.75 45.52 19.99 45.23 20.14 44.83C20.28 44.43 20.36 43.87 20.36 43.15C20.36 42.43 20.28 41.87 20.14 41.46C19.99 41.06 19.75 40.78 19.42 40.61C19.09 40.45 18.63 40.36 18.04 40.36L18.04 40.36ZM18.04 41.32C18.32 41.32 18.53 41.38 18.69 41.48C18.84 41.59 18.94 41.78 19.01 42.04C19.07 42.3 19.1 42.67 19.1 43.15C19.1 43.63 19.07 44 19.01 44.26C18.94 44.52 18.84 44.7 18.69 44.81C18.53 44.92 18.32 44.98 18.04 44.98C17.77 44.98 17.55 44.92 17.4 44.81C17.25 44.7 17.14 44.52 17.08 44.26C17.02 44 16.99 43.63 16.99 43.15C16.99 42.67 17.02 42.3 17.08 42.04C17.14 41.78 17.25 41.59 17.4 41.48C17.55 41.38 17.77 41.32 18.04 41.32L18.04 41.32ZM23.33 40.4C22.82 40.4 22.42 40.4 22.15 40.41C21.87 40.41 21.58 40.43 21.27 40.47L21.27 45.83L22.47 45.83L22.47 43.84C22.8 43.88 23.14 43.9 23.49 43.9C23.95 43.9 24.31 43.85 24.56 43.75C24.82 43.65 25.01 43.47 25.12 43.22C25.24 42.96 25.29 42.61 25.29 42.15C25.29 41.68 25.23 41.33 25.11 41.08C24.99 40.83 24.8 40.65 24.52 40.55C24.24 40.45 23.84 40.4 23.33 40.4L23.33 40.4ZM23.3 42.99L22.47 42.99L22.47 41.31L23.3 41.31C23.51 41.31 23.68 41.33 23.79 41.38C23.9 41.42 23.98 41.51 24.03 41.62C24.07 41.74 24.1 41.92 24.1 42.15C24.1 42.37 24.07 42.55 24.03 42.67C23.98 42.79 23.9 42.87 23.79 42.92C23.68 42.96 23.51 42.99 23.3 42.99L23.3 42.99ZM29.19 40.47L29.19 42.52L27.29 42.52L27.29 40.47L26.1 40.47L26.1 45.83L27.29 45.83L27.29 43.44L29.19 43.44L29.19 45.83L30.39 45.83L30.39 40.47L29.19 40.47ZM35.95 40.47L34.77 40.47L32.94 43.66C32.8 43.93 32.7 44.17 32.63 44.36L32.58 44.36C32.63 44.09 32.65 43.84 32.65 43.62L32.65 40.47L31.51 40.47L31.51 45.83L32.69 45.83L34.52 42.61C34.64 42.38 34.74 42.14 34.82 41.9L34.88 41.9C34.83 42.14 34.81 42.38 34.81 42.63L34.81 45.83L35.95 45.83L35.95 40.47ZM41.26 44.98L41.26 40.47L40.06 40.47L40.06 44.98L38.26 44.98L38.26 40.47L37.07 40.47L37.07 45.83L40.97 45.83L41.06 47.01L41.9 47.01L41.9 44.98L41.26 44.98ZM43.83 40.47L42.64 40.47L42.64 45.83L43.83 45.83L43.83 40.47Z" />
</svg>